#N canvas -1 31 1920 909 12;
#X declare -lib Gem;
#X obj 34 94 gemhead;
#X msg 34 138 dialog;
#X obj 34 544 pix_texture;
#X obj 34 591 rectangle 4 3;
#X obj 34 39 netreceive 3500;
#X text 143 38 <-- receive video data from network;
#X text 90 95 <-- Read video data;
#X text 84 138 <-- indicates video device;
#X text 118 544 <-- video output;
#X text 135 592 <-- screen size;
#X obj 34 384 pix_video;
#X obj 34 417 alpha;
#X obj 34 453 colorRGB;
#X obj 34 486 pix_texture;
#X obj 34 516 square 3;
#X floatatom 175 332 5 0 255 0 - - - 0;
#X floatatom 318 323 5 0 255 0 - - - 0;
#X floatatom 464 320 5 0 255 0 - - - 0;
#X floatatom 611 317 5 0 255 0 - - - 0;
#X obj 178 293 hsl 128 15 0 255 0 0 empty empty empty -2 -8 0 10 #fc0400
#000000 #000000 0 1;
#X obj 321 292 hsl 128 15 0 255 0 0 empty empty empty -2 -8 0 10 #00fc04
#000000 #000000 0 1;
#X obj 467 291 hsl 128 15 0 255 0 0 empty empty empty -2 -8 0 10 #0400fc
#000000 #000000 0 1;
#X obj 614 290 hsl 128 15 0 255 0 0 empty empty empty -2 -8 0 10 #b8b8b8
#000000 #000000 0 1;
#X text 651 317 alpha;
#X text 216 332 RED;
#X text 358 324 GREEN;
#X text 504 320 BLUE;
#X obj 176 221 osc/unpackOSC;
#X obj 176 251 osc/routeOSC /video_red /video_green /video_blue /video_alpha
, f 62;
#X obj 176 190 mrpeach/net/udpreceive 40133;
#X obj 33 14 declare -lib Gem;
#X connect 0 0 10 0;
#X connect 1 0 10 0;
#X connect 2 0 3 0;
#X connect 4 0 0 0;
#X connect 10 0 11 0;
#X connect 11 0 12 0;
#X connect 12 0 13 0;
#X connect 13 0 14 0;
#X connect 14 0 2 0;
#X connect 15 0 12 1;
#X connect 16 0 12 2;
#X connect 17 0 12 3;
#X connect 18 0 12 4;
#X connect 19 0 15 0;
#X connect 20 0 16 0;
#X connect 21 0 17 0;
#X connect 22 0 18 0;
#X connect 27 0 28 0;
#X connect 28 0 19 0;
#X connect 28 1 20 0;
#X connect 28 2 21 0;
#X connect 28 3 22 0;
#X connect 29 0 27 0;
