#N canvas 173 136 1061 414 12;
#X declare -lib Gem;
#X msg 265 212 create \, 1;
#X msg 282 242 destroy;
#X obj 265 358 gemwin;
#X obj 595 378 netsend;
#X msg 279 273 dimen 500 500;
#X text 339 212 <-- create video object;
#X text 337 242 <-- close video object;
#X text 375 273 <-- screen dimensions;
#X text 648 378 <-- send video data to network;
#X text 313 355 <-- video object creator;
#X obj 265 175 tgl 15 0 empty empty empty 17 7 0 10 #00fc04 #000000
#000000 0 1;
#X obj 265 97 osc/unpackOSC;
#X obj 265 65 mrpeach/net/udpreceive 40100;
#X obj 597 168 tgl 15 0 empty empty empty 17 7 0 10 #fc0400 #000000
#000000 0 1;
#X obj 597 90 osc/unpackOSC;
#X text 614 165 <-- STOP video recording via OSC;
#X text 282 172 <-- START video recording OSC;
#X text 799 58 <-- receive OSC message from network;
#X text 696 90 <-- convert OSC message to Pure data;
#X text 5 66 receive OSC message from network -->;
#X text 6 96 convert OSC message to Pure data -->;
#X obj 597 128 osc/routeOSC /video_control_off;
#X obj 265 135 osc/routeOSC /video_control_on;
#X obj 597 58 mrpeach/net/udpreceive 40101;
#X obj 197 16 declare -lib Gem;
#X connect 0 0 2 0;
#X connect 1 0 2 0;
#X connect 2 0 3 0;
#X connect 4 0 2 0;
#X connect 10 0 0 0;
#X connect 11 0 22 0;
#X connect 12 0 11 0;
#X connect 13 0 1 0;
#X connect 14 0 21 0;
#X connect 21 0 13 0;
#X connect 22 0 10 0;
#X connect 23 0 14 0;
