#N canvas 1919 -1 1366 699 10;
#X obj 138 397 hsl 128 15 0 127 0 0 empty empty empty -2 -8 0 10 #00ff04
#000000 #000000 0 1;
#X obj 135 483 osc/packOSC;
#X obj 69 526 mrpeach/net/udpsend;
#X msg 78 367 disconnect;
#X msg 135 454 send /volume \$1;
#X text 236 331 <-- conecta IP e porta;
#X text 145 366 <-- encerra conexão;
#X text 273 395 <-- vslider de volume;
#X text 210 483 <-- converte uma mensagem PD para uma mensagem em OSC
;
#X text 233 453 <-- prepara a mensagem OSC;
#X text 195 523 <-- chama a biblioteca mrpeach \, que cria uma infraestrutura
de rede para transporte de mensagem OSC na mesma. Ela é enviada sob
o protocolo UDP \, de forma unidirecional;
#X floatatom 156 425 5 0 0 0 - - - 0;
#X text 189 424 <-- exibe o volume \, que vai de 0 a 127;
#X msg 67 330 connect localhost 40000;
#X obj 695 410 hsl 128 15 0 127 0 0 empty empty empty -2 -8 0 10 #0400ff
#000000 #000000 0 1;
#X obj 692 496 osc/packOSC;
#X obj 626 539 mrpeach/net/udpsend;
#X msg 635 380 disconnect;
#X text 793 344 <-- conecta IP e porta;
#X text 702 379 <-- encerra conexão;
#X text 830 408 <-- vslider de volume;
#X text 767 496 <-- converte uma mensagem PD para uma mensagem em OSC
;
#X text 790 466 <-- prepara a mensagem OSC;
#X text 752 536 <-- chama a biblioteca mrpeach \, que cria uma infraestrutura
de rede para transporte de mensagem OSC na mesma. Ela é enviada sob
o protocolo UDP \, de forma unidirecional;
#X floatatom 713 438 5 0 0 0 - - - 0;
#X text 746 437 <-- exibe o volume \, que vai de 0 a 127;
#X msg 624 343 connect localhost 41414;
#X msg 692 467 send /reverb \$1;
#X obj 139 204 osc/packOSC;
#X obj 73 247 mrpeach/net/udpsend;
#X msg 139 175 send /mic \$1;
#X obj 139 131 tgl 15 0 empty empty empty 17 7 0 10 #00fc04 #000000
#000000 0 1;
#X obj 712 201 osc/packOSC;
#X obj 646 244 mrpeach/net/udpsend;
#X msg 712 172 send /mic \$1;
#X obj 712 128 tgl 15 0 empty empty empty 17 7 0 10 #fc0400 #000000
#000000 0 1;
#X text 156 129 <-- ON;
#X text 733 127 <-- OFF;
#X text 279 87 <-- close connection;
#X text 217 174 <-- prepare to send message;
#X text 214 204 <-- pack message in a OSC format;
#X text 195 249 <-- send OSC packet via network \, using mrpeach library
;
#X text 829 43 <-- connect to multicast address;
#X text 832 77 <-- close connection;
#X text 788 172 <-- prepare to send message;
#X text 784 203 <-- pack message in a OSC format;
#X text 768 245 <-- send OSC packet via network \, using mrpeach library
;
#X text 1677 108 <-- INPUT message;
#X text 1583 325 <-- OUTPUT message;
#X text 1582 511 <-- GOODBYE message;
#X text 1509 63 Standard HELLO message: /hello/id/ip/human_name;
#X floatatom 73 283 5 0 1 0 - - - 0;
#X text 114 284 <-- connection status;
#X floatatom 646 274 5 0 1 0 - - - 0;
#X text 686 278 <-- connection status;
#X text 1484 48 <-- presents the musical thing on the network;
#X obj 1707 1116 osc/packOSC;
#X obj 1641 1159 mrpeach/net/udpsend;
#X msg 1707 1087 send /mic \$1;
#X obj 1707 1043 tgl 15 0 empty empty empty 17 7 0 10 #fc0400 #000000
#000000 0 1;
#X text 1824 958 <-- connect to multicast address;
#X text 1827 992 <-- close connection;
#X text 1783 1087 <-- prepare to send message;
#X text 1779 1118 <-- pack message in a OSC format;
#X text 1763 1160 <-- send OSC packet via network \, using mrpeach
library;
#X floatatom 1641 1189 5 0 1 0 - - - 0;
#X text 1681 1193 <-- connection status;
#X obj 1640 1358 osc/unpackOSC;
#X obj 1640 1385 osc/routeOSC /connection;
#X obj 1640 1411 list;
#X obj 1638 1504 osc/unpackOSC;
#X obj 1638 1557 list;
#X obj 1638 1531 osc/routeOSC /disconnection;
#X msg 1641 958 connect 224.0.0.0 40533;
#X msg 1650 991 disconnect 224.0.0.0 40533;
#X text 1728 1042 <-- CLOSE - SUBPATCH [mic_aux_2];
#X obj 1640 1317 mrpeach/net/udpreceive 224.0.0.0 55538;
#X obj 1638 1462 mrpeach/net/udpreceive 224.0.0.0 55542;
#X text 252 52 <-- connect to multicast address;
#X obj 1789 235 bng 22 250 50 0 empty empty empty 17 7 0 10 #9c00fc
#000000 #000000;
#X text 1858 297 <-- same random number;
#X text 1815 235 <-- mode;
#X msg 1789 335 send /mode/\$1/192.168.0.10/Microphone/Performance_Mode
;
#X text 1790 356 Standard MODE message: /mode/ID_number/IP_number/human_name/status
;
#X obj 1789 298 value id15;
#X msg 71 51 connect localhost 40030;
#X msg 82 87 disconnect localhost 40030;
#X msg 646 43 connect localhost 40031;
#X msg 655 76 disconnect localhost 40031;
#X connect 0 0 4 0;
#X connect 0 0 11 0;
#X connect 1 0 2 0;
#X connect 3 0 2 0;
#X connect 4 0 1 0;
#X connect 13 0 2 0;
#X connect 14 0 27 0;
#X connect 14 0 24 0;
#X connect 15 0 16 0;
#X connect 17 0 16 0;
#X connect 26 0 16 0;
#X connect 27 0 15 0;
#X connect 28 0 29 0;
#X connect 29 0 51 0;
#X connect 30 0 28 0;
#X connect 31 0 30 0;
#X connect 32 0 33 0;
#X connect 33 0 53 0;
#X connect 34 0 32 0;
#X connect 35 0 34 0;
#X connect 56 0 57 0;
#X connect 57 0 65 0;
#X connect 58 0 56 0;
#X connect 59 0 58 0;
#X connect 67 0 68 0;
#X connect 68 0 69 0;
#X connect 69 0 73 0;
#X connect 70 0 72 0;
#X connect 71 0 74 0;
#X connect 72 0 71 0;
#X connect 73 0 57 0;
#X connect 74 0 57 0;
#X connect 76 0 67 0;
#X connect 77 0 70 0;
#X connect 79 0 84 0;
#X connect 84 0 82 0;
#X connect 85 0 29 0;
#X connect 86 0 29 0;
#X connect 87 0 33 0;
#X connect 88 0 33 0;
