#N canvas 1919 -1 1366 699 12;
#X obj 94 189 osc/packOSC;
#X obj 28 232 mrpeach/net/udpsend;
#X text 245 35 <-- connect to multicast address;
#X text 264 67 <-- close connection;
#X text 181 190 <-- convert Pure Data message to OSC;
#X text 173 233 <-- send OSC data packaged in UDP \, using the mrpeach
library;
#X floatatom 28 274 5 0 1 0 - - - 0;
#X text 70 274 <-- connection status;
#X obj 28 370 osc/unpackOSC;
#X obj 28 397 osc/routeOSC /connection;
#X obj 28 423 list;
#X obj 26 518 osc/unpackOSC;
#X obj 26 545 osc/routeOSC /connection;
#X obj 26 571 list;
#X obj 97 131 hsl 128 15 0 255 0 0 empty empty empty -2 -8 0 10 #fc0400
#000000 #000000 0 1;
#X obj 343 129 hsl 128 15 0 255 0 0 empty empty empty -2 -8 0 10 #00fc04
#000000 #000000 0 1;
#X obj 534 129 hsl 128 15 0 255 0 0 empty empty empty -2 -8 0 10 #0400fc
#000000 #000000 0 1;
#X obj 785 127 hsl 128 15 0 255 0 0 empty empty empty -2 -8 0 10 #dcdcdc
#000000 #000000 0 1;
#X msg 94 160 send /video_red \$1;
#X msg 340 158 send /video_green \$1;
#X msg 531 158 send /video_blue \$1;
#X msg 782 156 send /video_alpha \$1;
#X obj 28 329 mrpeach/net/udpreceive 224.0.0.0 55347;
#X obj 26 477 mrpeach/net/udpreceive 224.0.0.0 55348;
#X msg 28 36 connect localhost 40133;
#X msg 28 69 disconnect localhost 40133;
#X connect 0 0 1 0;
#X connect 1 0 6 0;
#X connect 8 0 9 0;
#X connect 9 0 10 0;
#X connect 10 0 24 0;
#X connect 11 0 12 0;
#X connect 12 0 13 0;
#X connect 13 0 25 0;
#X connect 14 0 18 0;
#X connect 15 0 19 0;
#X connect 16 0 20 0;
#X connect 17 0 21 0;
#X connect 18 0 0 0;
#X connect 19 0 0 0;
#X connect 20 0 0 0;
#X connect 21 0 0 0;
#X connect 22 0 8 0;
#X connect 23 0 11 0;
#X connect 24 0 1 0;
#X connect 25 0 1 0;
