#N canvas -1 31 1920 909 12;
#X obj 318 266 osc/packOSC;
#X obj 251 313 mrpeach/net/udpsend;
#X floatatom 318 205 5 0 1000 0 - - - 0;
#X text 492 124 <-- close connection;
#X text 426 236 <-- prepare OSC message;
#X text 400 266 <-- convert Pure Data message to OSC;
#X text 393 312 <-- send OSC data packaged in UDP \, using the mrpeach
library;
#X floatatom 251 351 5 0 1 0 - - - 0;
#X text 293 350 <-- connection status;
#X msg 318 237 send /speed \$1;
#X obj 321 151 hsl 128 15 0 1000 0 0 empty empty empty -2 -8 0 10 #fc8000
#000000 #000000 0 1;
#X obj 318 178 int;
#X text 359 205 <-- Stars speed;
#X text 353 178 <-- Convert Vslider value to int;
#X text 462 85 <-- connect to this address;
#X obj 244 459 osc/unpackOSC;
#X obj 244 486 osc/routeOSC /connection;
#X obj 244 512 list;
#X obj 241 594 osc/unpackOSC;
#X obj 241 647 list;
#X obj 241 621 osc/routeOSC /disconnection;
#X text 343 458 <-- unpack OSC messages;
#X obj 244 418 mrpeach/net/udpreceive 224.0.0.0 58584;
#X obj 241 566 mrpeach/net/udpreceive 224.0.0.0 58585;
#X msg 251 87 connect 255.255.255.255 12002;
#X msg 262 124 disconnect 255.255.255.255 12002;
#X connect 0 0 1 0;
#X connect 1 0 7 0;
#X connect 2 0 9 0;
#X connect 9 0 0 0;
#X connect 10 0 11 0;
#X connect 11 0 2 0;
#X connect 15 0 16 0;
#X connect 16 0 17 0;
#X connect 17 0 24 0;
#X connect 18 0 20 0;
#X connect 19 0 25 0;
#X connect 20 0 19 0;
#X connect 22 0 15 0;
#X connect 23 0 18 0;
#X connect 24 0 1 0;
#X connect 25 0 1 0;
