#N canvas 0 64 1920 909 12;
#X obj 425 258 osc/packOSC;
#X obj 358 305 mrpeach/net/udpsend;
#X floatatom 425 197 5 0 255 0 - - - 0;
#X text 602 118 <-- close connection;
#X text 554 229 <-- prepare OSC message;
#X text 510 260 <-- convert Pure Data message to OSC;
#X floatatom 358 343 5 0 1 0 - - - 0;
#X text 400 342 <-- connection status;
#X obj 428 144 hsl 128 15 0 255 0 0 empty empty empty -2 -8 0 10 #00fc04
#000000 #000000 0 1;
#X obj 425 170 int;
#X text 466 197 <-- Stars speed;
#X text 572 79 <-- connect to this address;
#X msg 358 79 connect 255.255.255.255 12000;
#X msg 369 116 disconnect 255.255.255.255 12000;
#X obj 354 453 osc/unpackOSC;
#X obj 354 480 osc/routeOSC /connection;
#X obj 354 506 list;
#X obj 351 588 osc/unpackOSC;
#X obj 351 641 list;
#X obj 351 615 osc/routeOSC /disconnection;
#X text 453 452 <-- unpack OSC messages;
#X obj 835 285 osc/packOSC;
#X floatatom 835 224 5 0 255 0 - - - 0;
#X text 961 238 <-- prepare OSC message;
#X text 917 285 <-- convert Pure Data message to OSC;
#X obj 838 171 hsl 128 15 0 255 0 0 empty empty empty -2 -8 0 10 #0400fc
#000000 #000000 0 1;
#X obj 835 197 int;
#X text 870 197 <-- Convert Vslider value to int;
#X obj 49 285 osc/packOSC;
#X floatatom 49 224 5 0 255 0 - - - 0;
#X obj 52 171 hsl 128 15 0 255 0 0 empty empty empty -2 -8 0 10 #fc0400
#000000 #000000 0 1;
#X obj 49 198 int;
#X text 84 197 <-- Convert Vslider value to int;
#X text 876 224 <-- Blue color control;
#X text 460 170 <-- Green color control;
#X text 90 224 <-- Red color control;
#X msg 49 256 send /cor1 \$1;
#X msg 426 229 send /cor2 \$1;
#X msg 835 256 send /cor3 \$1;
#X obj 354 412 mrpeach/net/udpreceive 224.0.0.0 12736;
#X obj 351 560 mrpeach/net/udpreceive 224.0.0.0 12737;
#X connect 0 0 1 0;
#X connect 1 0 6 0;
#X connect 2 0 37 0;
#X connect 8 0 9 0;
#X connect 9 0 2 0;
#X connect 12 0 1 0;
#X connect 13 0 1 0;
#X connect 14 0 15 0;
#X connect 15 0 16 0;
#X connect 16 0 12 0;
#X connect 17 0 19 0;
#X connect 18 0 13 0;
#X connect 19 0 18 0;
#X connect 21 0 1 0;
#X connect 22 0 38 0;
#X connect 25 0 26 0;
#X connect 26 0 22 0;
#X connect 28 0 1 0;
#X connect 29 0 36 0;
#X connect 30 0 31 0;
#X connect 31 0 29 0;
#X connect 36 0 28 0;
#X connect 37 0 0 0;
#X connect 38 0 21 0;
#X connect 39 0 14 0;
#X connect 40 0 17 0;
