#N canvas 386 434 1440 664 12;
#X obj 425 258 osc/packOSC;
#X obj 358 305 mrpeach/net/udpsend;
#X floatatom 425 197 5 0 255 0 - - - 0;
#X text 602 118 <-- close connection;
#X text 554 229 <-- prepare OSC message;
#X text 510 260 <-- convert Pure Data message to OSC;
#X floatatom 358 343 5 0 1 0 - - - 0;
#X text 400 342 <-- connection status;
#X obj 428 144 hsl 128 15 0 255 0 0 empty empty empty -2 -8 0 10 #00fc04
#000000 #000000 0 1;
#X obj 425 170 int;
#X text 466 197 <-- Stars speed;
#X text 572 79 <-- connect to this address;
#X obj 354 453 osc/unpackOSC;
#X obj 354 480 osc/routeOSC /connection;
#X obj 354 506 list;
#X obj 351 588 osc/unpackOSC;
#X obj 351 641 list;
#X obj 351 615 osc/routeOSC /disconnection;
#X text 453 452 <-- unpack OSC messages;
#X obj 835 285 osc/packOSC;
#X floatatom 835 224 5 0 255 0 - - - 0;
#X text 961 238 <-- prepare OSC message;
#X text 917 285 <-- convert Pure Data message to OSC;
#X obj 838 171 hsl 128 15 0 255 0 0 empty empty empty -2 -8 0 10 #0400fc
#000000 #000000 0 1;
#X obj 835 197 int;
#X text 870 197 <-- Convert Vslider value to int;
#X obj 49 285 osc/packOSC;
#X floatatom 49 224 5 0 255 0 - - - 0;
#X obj 52 171 hsl 128 15 0 255 0 0 empty empty empty -2 -8 0 10 #fc0400
#000000 #000000 0 1;
#X obj 49 198 int;
#X text 84 197 <-- Convert Vslider value to int;
#X msg 49 256 send /vermelho \$1;
#X msg 425 229 send /verde \$1;
#X msg 835 256 send /azul \$1;
#X text 876 224 <-- Blue color control;
#X text 460 170 <-- Green color control;
#X text 90 224 <-- Red color control;
#X obj 354 412 mrpeach/net/udpreceive 224.0.0.0 12489;
#X obj 351 560 mrpeach/net/udpreceive 224.0.0.0 12490;
#X msg 364 33 connect localhost 12001;
#X msg 369 116 disconnect localhost 12001;
#X connect 0 0 1 0;
#X connect 1 0 6 0;
#X connect 2 0 32 0;
#X connect 8 0 9 0;
#X connect 9 0 2 0;
#X connect 12 0 13 0;
#X connect 13 0 14 0;
#X connect 14 0 39 0;
#X connect 15 0 17 0;
#X connect 16 0 40 0;
#X connect 17 0 16 0;
#X connect 19 0 1 0;
#X connect 20 0 33 0;
#X connect 23 0 24 0;
#X connect 24 0 20 0;
#X connect 26 0 1 0;
#X connect 27 0 31 0;
#X connect 28 0 29 0;
#X connect 29 0 27 0;
#X connect 31 0 26 0;
#X connect 32 0 0 0;
#X connect 33 0 19 0;
#X connect 37 0 12 0;
#X connect 38 0 15 0;
#X connect 39 0 1 0;
#X connect 40 0 1 0;
