#N canvas 0 64 1920 909 12;
#X text 264 30 <-- connect to multicast address;
#X text 285 64 <-- close connection;
#X obj 53 255 mrpeach/net/udpsend;
#X text 193 256 <-- send OSC data packaged in UDP \, using the mrpeach
library;
#X obj 49 436 osc/unpackOSC;
#X obj 49 463 osc/routeOSC /connection;
#X obj 49 489 list;
#X obj 47 582 osc/unpackOSC;
#X obj 47 635 list;
#X obj 47 609 osc/routeOSC /disconnection;
#X floatatom 53 287 5 0 1 0 - - - 0;
#X text 91 288 <-- connection status;
#X msg 53 32 connect 255.255.255.255 12000;
#X msg 53 64 disconnect 255.255.255.255 12000;
#X obj 65 219 osc/packOSC;
#X floatatom 65 158 5 0 1000 0 - - - 0;
#X obj 68 104 hsl 128 15 0 255 0 0 empty empty empty -2 -8 0 10 #dcdcdc
#000000 #000000 0 1;
#X obj 65 131 int;
#X msg 65 190 send /corfundo \$1;
#X obj 239 219 osc/packOSC;
#X floatatom 239 158 5 0 1000 0 - - - 0;
#X obj 242 104 hsl 128 15 0 255 0 0 empty empty empty -2 -8 0 10 #b8b8b8
#000000 #000000 0 1;
#X obj 239 131 int;
#X msg 239 190 send /corlinhas \$1;
#X obj 441 212 osc/packOSC;
#X floatatom 441 151 5 0 1000 0 - - - 0;
#X obj 444 98 hsl 128 15 0 255 0 0 empty empty empty -2 -8 0 10 #7c7c7c
#000000 #000000 0 1;
#X obj 441 124 int;
#X msg 441 183 send /preenchimento \$1;
#X obj 649 215 osc/packOSC;
#X floatatom 649 154 5 0 1000 0 - - - 0;
#X obj 652 100 hsl 128 15 0 255 0 0 empty empty empty -2 -8 0 10 #606060
#000000 #000000 0 1;
#X obj 649 127 int;
#X msg 649 185 send /corelipse \$1;
#X obj 49 395 mrpeach/net/udpreceive 224.0.0.0 13632;
#X obj 47 540 mrpeach/net/udpreceive 224.0.0.0 13633;
#X connect 2 0 10 0;
#X connect 4 0 5 0;
#X connect 5 0 6 0;
#X connect 6 0 12 0;
#X connect 7 0 9 0;
#X connect 8 0 13 0;
#X connect 9 0 8 0;
#X connect 12 0 2 0;
#X connect 13 0 2 0;
#X connect 14 0 2 0;
#X connect 15 0 18 0;
#X connect 16 0 17 0;
#X connect 17 0 15 0;
#X connect 18 0 14 0;
#X connect 19 0 2 0;
#X connect 20 0 23 0;
#X connect 21 0 22 0;
#X connect 22 0 20 0;
#X connect 23 0 19 0;
#X connect 24 0 2 0;
#X connect 25 0 28 0;
#X connect 26 0 27 0;
#X connect 27 0 25 0;
#X connect 28 0 24 0;
#X connect 29 0 2 0;
#X connect 30 0 33 0;
#X connect 31 0 32 0;
#X connect 32 0 30 0;
#X connect 33 0 29 0;
#X connect 34 0 4 0;
#X connect 35 0 7 0;
